<?xml version="1.0" standalone="no"?>
<!DOCTYPE svg PUBLIC "-//W3C//DTD SVG 20010904//EN"
 "http://www.w3.org/TR/2001/REC-SVG-20010904/DTD/svg10.dtd">
<svg version="1.0" xmlns="http://www.w3.org/2000/svg"
 width="16.000000pt" height="16.000000pt" viewBox="0 0 16.000000 16.000000"
 preserveAspectRatio="xMidYMid meet">
<metadata>
Created by potrace 1.11, written by Peter Selinger 2001-2013
</metadata>
<g transform="translate(0.000000,16.000000) scale(0.000595,-0.000595)"
fill="#000000" stroke="none">
<path d="M12955 17798 c3 -271 8 -648 10 -838 4 -333 11 -925 20 -1615 2 -181
7 -568 10 -860 8 -673 9 -712 39 -861 12 -61 51 -165 86 -233 100 -192 266
-325 486 -389 105 -31 133 -36 259 -49 128 -13 545 0 555 17 3 5 5 83 4 172
l-1 163 -39 -5 c-21 -2 -86 -4 -144 -4 -91 0 -112 3 -161 26 -67 31 -94 52
-123 98 -65 100 -72 190 -81 995 -3 269 -8 645 -10 835 -2 190 -7 575 -10 855
-3 281 -7 572 -8 649 -2 86 2 140 8 142 5 2 109 5 229 6 l219 3 -1 93 c0 50
-1 139 -1 197 l-1 104 -230 -3 -230 -3 -1 71 c-2 323 -10 860 -12 863 -2 1
-41 5 -88 8 -46 3 -106 8 -134 10 -27 3 -90 7 -140 10 -49 3 -112 8 -140 10
-27 2 -87 7 -132 10 -46 3 -119 7 -163 10 l-81 6 6 -493z"/>
<path d="M10967 18073 c-1 0 -42 -4 -92 -7 -49 -4 -97 -9 -105 -11 -8 -3 -39
-7 -69 -10 -124 -12 -356 -70 -466 -116 -16 -7 -32 -13 -35 -13 -20 -5 -144
-75 -185 -105 -132 -96 -223 -236 -250 -383 -3 -13 -9 -45 -14 -73 -10 -50 -8
-340 3 -384 3 -13 8 -49 11 -80 4 -31 8 -63 10 -71 3 -8 7 -33 10 -55 9 -62
17 -118 21 -139 2 -10 6 -37 8 -60 3 -22 8 -52 10 -66 2 -14 7 -46 10 -71 4
-25 9 -59 12 -75 3 -16 7 -42 9 -59 2 -16 6 -48 10 -70 3 -22 13 -83 21 -135
31 -204 94 -330 225 -456 71 -67 131 -108 282 -189 101 -55 347 -177 502 -249
294 -137 403 -199 499 -287 92 -84 109 -129 141 -379 3 -25 8 -52 10 -60 2 -8
6 -37 10 -65 3 -27 12 -90 20 -140 7 -49 16 -108 20 -130 3 -22 10 -67 15
-100 5 -33 12 -80 15 -105 6 -43 11 -73 20 -130 2 -14 7 -45 10 -70 2 -25 8
-62 11 -84 8 -52 11 -76 19 -176 19 -222 -64 -352 -235 -367 -72 -7 -121 9
-172 55 -83 75 -122 181 -163 437 -22 145 -46 305 -50 330 -1 17 -6 44 -8 60
-3 17 -13 80 -22 140 -9 61 -18 121 -20 135 -2 14 -6 45 -10 70 -3 25 -8 57
-11 72 -3 15 -7 41 -9 58 -15 113 -34 233 -39 238 -3 3 -130 -14 -246 -33 -14
-2 -45 -7 -70 -10 -25 -3 -52 -8 -60 -10 -8 -2 -37 -6 -65 -10 -27 -3 -90 -12
-140 -20 -49 -8 -110 -17 -135 -20 -156 -21 -153 -20 -146 -53 3 -15 8 -49 11
-77 4 -27 8 -57 10 -65 5 -17 6 -26 36 -230 11 -80 24 -170 29 -200 9 -57 25
-167 35 -235 38 -266 68 -402 114 -513 93 -226 223 -361 422 -437 67 -26 77
-29 164 -45 110 -21 324 -28 420 -15 17 2 62 7 100 10 39 3 77 8 85 10 8 2 35
7 60 10 25 4 86 15 135 26 50 11 98 22 107 24 59 13 218 75 298 116 256 130
374 302 409 594 8 69 7 357 -2 425 -3 19 -8 62 -12 95 -4 32 -9 68 -11 80 -2
11 -6 38 -9 60 -3 22 -7 51 -10 65 -5 32 -34 214 -41 260 -3 19 -9 58 -14 85
-5 28 -12 68 -15 90 -28 193 -92 364 -186 492 -66 91 -195 213 -294 278 -86
57 -393 217 -575 300 -368 168 -518 268 -594 398 -39 67 -89 277 -111 473 -3
27 -8 56 -10 64 -5 16 -13 69 -21 140 -2 25 -6 56 -9 70 -5 38 -14 100 -20
145 -2 22 -7 62 -11 90 -11 87 -13 117 -19 285 -8 224 5 259 98 280 92 20 167
21 212 1 44 -20 95 -72 124 -129 22 -44 56 -158 66 -222 4 -25 9 -54 12 -65 5
-25 9 -49 22 -144 6 -41 13 -83 16 -95 2 -12 6 -39 9 -61 5 -40 20 -143 36
-245 5 -30 18 -118 29 -195 11 -77 23 -158 26 -180 11 -73 3 -71 135 -50 14 2
61 9 105 15 44 7 87 13 95 15 8 2 38 6 65 9 28 4 61 8 75 11 14 3 39 7 55 9
17 2 50 7 75 11 25 4 56 8 70 10 14 2 45 7 70 11 25 4 54 8 65 10 11 1 23 3
26 3 3 1 -1 34 -8 74 -7 39 -15 97 -18 127 -3 30 -8 62 -10 70 -2 8 -7 35 -10
60 -3 25 -12 86 -20 135 -8 50 -17 113 -21 140 -3 28 -8 59 -10 70 -2 11 -6
38 -9 60 -4 22 -8 49 -10 60 -1 11 -7 45 -11 75 -4 30 -9 57 -9 60 -1 3 -5 23
-9 45 -24 122 -85 274 -149 368 -145 217 -358 311 -720 321 -32 0 -59 0 -60
-1z"/>
<path d="M18720 17757 c-4 -12 -29 -98 -55 -192 -26 -93 -74 -267 -107 -385
-33 -118 -68 -244 -78 -280 -46 -167 -279 -1001 -295 -1055 -24 -84 -327
-1166 -341 -1220 -7 -27 -26 -97 -42 -155 -17 -58 -64 -229 -106 -380 -42
-151 -90 -320 -106 -375 -82 -283 -109 -478 -85 -629 4 -22 9 -53 11 -69 11
-72 61 -187 115 -267 139 -206 435 -372 794 -444 23 -5 110 -25 140 -33 11 -3
35 -6 54 -6 l34 -2 43 155 c24 85 40 157 36 161 -4 4 -45 14 -91 23 -155 31
-261 99 -304 194 -28 64 -26 168 4 300 6 26 12 54 14 62 10 45 53 208 100 375
99 350 297 1060 300 1075 2 8 22 80 45 160 23 80 43 152 45 160 2 8 16 56 30
105 14 50 27 97 30 105 5 21 70 257 149 540 118 422 139 495 142 501 4 6 58
-7 194 -46 30 -9 62 -18 70 -20 8 -2 50 -13 93 -25 43 -12 80 -20 82 -18 5 5
106 371 103 373 -4 3 -88 28 -218 64 -58 16 -131 36 -163 45 -32 9 -55 21 -52
26 3 6 8 18 10 27 3 17 27 104 137 493 105 375 106 380 89 380 -5 0 -22 5 -38
12 -15 6 -30 12 -33 13 -3 1 -12 4 -20 8 -8 3 -143 53 -300 110 -157 58 -316
117 -353 131 l-68 25 -9 -22z"/>
<path d="M15809 17207 c-2 -2 -3 -10 -13 -102 -4 -33 -11 -88 -17 -123 -5 -35
-7 -67 -4 -73 4 -5 57 -9 118 -9 62 0 139 -4 172 -9 33 -5 83 -12 110 -16 115
-14 158 -31 209 -81 32 -32 70 -104 80 -149 3 -16 9 -41 12 -55 3 -14 5 -63 5
-110 0 -88 -3 -132 -26 -325 -3 -22 -7 -62 -10 -90 -3 -27 -8 -59 -10 -70 -2
-11 -4 -28 -4 -38 -1 -10 -5 -15 -11 -12 -12 7 -209 42 -289 51 -31 3 -83 9
-116 14 -93 12 -330 4 -424 -15 -365 -72 -593 -297 -683 -675 -22 -93 -21 -86
-37 -215 -6 -49 -14 -107 -17 -127 -6 -47 -10 -76 -19 -158 -4 -36 -9 -72 -10
-80 -2 -8 -6 -44 -10 -80 -4 -36 -8 -72 -10 -80 -2 -8 -6 -44 -10 -80 -4 -36
-8 -72 -10 -80 -2 -8 -6 -44 -10 -80 -4 -36 -9 -73 -10 -82 -2 -9 -7 -48 -11
-85 -4 -37 -8 -81 -10 -98 -11 -102 -1 -311 21 -420 10 -52 45 -156 76 -223
94 -209 301 -383 559 -472 68 -23 180 -53 240 -64 19 -3 44 -8 55 -10 28 -5
194 -26 330 -41 28 -4 61 -8 75 -10 14 -2 48 -7 75 -10 28 -3 64 -8 80 -10 44
-6 364 -45 408 -51 56 -6 117 -14 167 -20 25 -3 53 -7 62 -10 13 -4 18 3 22
28 6 33 30 218 41 313 6 52 7 62 25 205 10 82 14 115 25 198 2 20 7 57 10 82
3 25 8 62 10 83 3 20 7 55 10 77 3 22 7 58 10 80 3 22 7 57 10 78 2 20 9 78
15 127 6 50 13 101 15 115 4 25 11 83 20 168 7 55 34 266 40 302 2 14 7 54 10
90 4 36 8 72 10 80 1 8 6 46 10 83 3 37 8 76 10 86 2 10 6 44 9 76 4 32 9 72
11 89 12 88 25 186 30 226 3 25 7 61 10 80 2 19 7 59 11 89 3 30 7 62 9 72 2
9 6 46 9 81 3 34 8 72 10 83 2 11 7 49 11 85 4 36 8 72 10 80 2 8 6 44 10 80
4 36 9 74 12 85 8 41 9 276 1 342 -21 165 -74 300 -159 406 -150 187 -418 306
-794 352 -27 4 -61 8 -75 10 -14 2 -61 7 -105 11 -44 4 -93 8 -110 10 -16 1
-66 6 -110 9 -44 4 -99 8 -122 10 -24 2 -44 3 -44 2z m461 -1590 c63 -13 114
-28 113 -33 0 -5 -4 -38 -8 -74 -4 -36 -8 -72 -10 -80 -2 -8 -6 -44 -10 -80
-4 -36 -8 -76 -10 -90 -11 -87 -17 -128 -21 -152 -2 -15 -6 -49 -9 -75 -3 -27
-7 -64 -9 -83 -3 -19 -8 -60 -12 -90 -4 -30 -8 -64 -9 -75 -2 -11 -6 -45 -9
-75 -4 -30 -9 -66 -11 -80 -2 -14 -7 -47 -10 -75 -3 -27 -7 -66 -10 -85 -2
-19 -7 -57 -10 -85 -3 -27 -8 -63 -10 -80 -4 -25 -25 -195 -51 -415 -3 -25 -7
-56 -9 -70 -2 -14 -7 -50 -10 -80 -3 -30 -8 -66 -10 -80 -2 -14 -7 -50 -10
-80 -3 -30 -8 -66 -10 -80 -2 -14 -6 -50 -10 -80 -8 -68 -12 -94 -20 -146 -7
-46 4 -43 -111 -30 -168 19 -229 33 -279 67 -45 30 -80 91 -95 165 -8 45 -6
396 4 454 2 14 7 54 11 90 3 36 8 79 10 95 2 17 7 57 11 90 3 33 8 67 9 75 1
8 6 44 10 80 4 36 9 72 10 80 2 13 7 52 20 160 3 19 7 55 10 80 3 25 8 61 10
80 6 56 15 132 20 165 2 17 7 53 10 80 10 86 46 297 61 358 33 131 97 225 178
263 60 28 117 26 286 -9z"/>
<path d="M20932 17095 c-58 -126 -212 -529 -206 -535 10 -9 511 -214 619 -252
17 -6 35 -14 40 -18 16 -11 135 -53 139 -49 2 2 46 108 96 234 51 127 99 244
107 262 15 33 14 67 -2 69 -6 0 -19 4 -30 9 -11 4 -54 21 -95 37 -41 16 -84
34 -95 39 -11 5 -142 58 -291 118 l-272 109 -10 -23z"/>
<path d="M8065 16313 c-67 -5 -232 -28 -267 -39 -9 -3 -25 -6 -35 -8 -54 -11
-180 -48 -268 -79 -293 -103 -492 -215 -636 -358 -86 -86 -136 -166 -175 -285
-24 -69 -27 -96 -28 -209 -2 -247 -20 -181 364 -1295 56 -162 106 -306 110
-320 4 -14 49 -144 100 -290 50 -146 100 -290 110 -320 171 -510 233 -666 320
-797 128 -193 276 -298 480 -339 65 -13 304 -12 380 1 87 15 254 58 355 91
441 145 710 325 819 549 60 122 75 196 71 353 -3 135 -6 155 -35 272 -28 107
-31 118 -255 765 -48 138 -99 288 -115 335 -16 47 -45 132 -65 190 -40 114
-204 590 -291 845 -129 376 -170 472 -258 603 -115 170 -275 284 -443 317 -66
12 -181 21 -238 18z m-262 -467 c108 -45 171 -154 287 -496 23 -69 46 -134 50
-145 5 -11 39 -108 75 -215 37 -107 86 -251 110 -320 24 -69 68 -197 98 -285
144 -419 257 -748 339 -985 197 -570 211 -619 211 -725 -1 -92 -15 -133 -65
-184 -41 -43 -104 -71 -172 -78 -103 -11 -202 59 -274 195 -29 54 -112 271
-162 422 -18 55 -35 104 -210 610 -50 146 -102 297 -115 335 -13 39 -63 183
-110 320 -48 138 -114 329 -147 425 -33 96 -78 227 -99 290 -127 367 -158 486
-155 595 5 144 76 229 211 254 50 9 85 6 128 -13z"/>
<path d="M20510 16048 c-29 -73 -58 -139 -63 -145 -5 -7 -7 -13 -4 -13 3 0 -5
-24 -18 -52 -12 -29 -82 -201 -155 -383 -73 -181 -138 -343 -145 -360 -7 -16
-68 -167 -135 -335 -67 -168 -128 -318 -135 -335 -8 -16 -72 -176 -143 -355
-127 -317 -141 -353 -167 -415 -7 -16 -54 -133 -105 -260 -50 -126 -98 -243
-105 -260 -7 -16 -49 -122 -95 -235 -45 -113 -95 -236 -110 -275 -138 -335
-177 -440 -165 -447 6 -4 81 -35 166 -69 85 -33 168 -67 184 -74 17 -7 73 -30
125 -50 52 -21 109 -43 125 -51 39 -17 184 -74 190 -74 7 0 27 48 240 580 114
283 235 585 270 670 35 85 109 270 165 410 56 140 107 269 115 285 7 17 63
156 125 310 61 154 120 299 131 322 10 24 19 47 19 53 0 6 4 18 10 28 5 9 34
78 64 152 134 335 430 1071 453 1124 13 32 23 59 21 61 -2 1 -129 53 -283 114
-154 62 -289 116 -300 121 -22 10 -218 90 -221 90 -1 0 -26 -60 -54 -132z"/>
<path d="M22625 15083 c-168 -17 -331 -100 -468 -239 -113 -114 -156 -180
-549 -834 -38 -63 -152 -252 -254 -420 -102 -168 -253 -419 -337 -557 -84
-139 -189 -315 -235 -390 -46 -76 -100 -172 -121 -213 -130 -256 -159 -471
-93 -685 51 -165 220 -362 452 -527 199 -141 473 -284 645 -337 134 -41 142
-42 276 -47 168 -6 287 31 419 129 168 125 292 293 571 774 9 16 69 116 134
223 228 376 729 1206 803 1330 180 300 243 475 243 675 1 299 -199 562 -630
830 -332 206 -637 309 -856 288z m651 -586 c121 -76 141 -215 54 -391 -47 -95
-47 -95 -243 -421 -247 -410 -367 -609 -376 -625 -34 -55 -371 -611 -391 -646
-14 -23 -81 -134 -148 -245 -68 -112 -128 -211 -133 -219 -52 -90 -200 -328
-231 -375 -127 -187 -256 -247 -390 -182 -29 15 -66 40 -82 56 -38 40 -64 119
-60 183 8 123 35 175 441 848 72 118 255 422 408 675 153 253 286 474 295 490
10 17 36 59 59 95 23 36 44 72 48 80 15 33 249 411 305 492 151 220 295 280
444 185z"/>
<path d="M4825 14885 c-190 -43 -443 -160 -662 -306 -304 -202 -477 -394 -544
-608 -29 -92 -32 -248 -8 -361 22 -98 23 -102 30 -115 4 -5 12 -28 19 -50 24
-74 91 -204 186 -357 30 -48 54 -90 54 -92 0 -3 13 -24 29 -48 16 -24 38 -59
49 -78 10 -19 92 -156 182 -305 89 -148 216 -360 282 -470 467 -782 647 -1073
693 -1121 5 -6 26 -28 45 -50 54 -59 148 -137 215 -177 170 -101 381 -119 609
-53 304 88 688 317 916 546 107 107 177 210 217 321 22 62 27 94 29 194 5 213
-51 375 -229 673 -34 56 -71 118 -82 137 -11 19 -146 244 -300 500 -154 256
-404 671 -555 923 -267 443 -309 511 -320 522 -3 3 -18 23 -34 45 -47 65 -176
188 -246 237 -68 46 -149 82 -240 106 -8 2 -64 5 -125 7 -87 2 -131 -2 -210
-20z m-135 -541 c103 -53 132 -92 393 -524 213 -352 592 -981 617 -1025 49
-85 211 -352 220 -362 5 -7 10 -14 10 -17 0 -2 86 -147 191 -323 295 -490 329
-563 315 -676 -14 -120 -124 -217 -248 -217 -125 0 -223 85 -367 320 -75 122
-345 566 -355 585 -6 11 -67 112 -134 225 -107 178 -328 546 -363 605 -7 11
-91 151 -187 310 -260 431 -359 603 -394 681 -67 152 -64 274 9 355 79 88 196
112 293 63z"/>
<path d="M1135 13545 c-209 -207 -550 -546 -758 -752 l-378 -377 73 -74 c40
-41 101 -103 136 -138 l62 -63 193 190 c105 105 288 285 404 401 117 117 216
208 220 204 4 -4 23 -34 43 -67 40 -69 471 -766 505 -819 13 -19 78 -125 145
-235 67 -110 133 -216 145 -235 18 -28 105 -168 154 -250 5 -8 43 -69 84 -135
41 -66 155 -250 253 -410 98 -159 182 -291 186 -293 5 -2 8 -7 8 -12 0 -8 167
-281 518 -845 86 -137 161 -261 169 -275 34 -64 449 -724 455 -724 4 -1 347
336 763 748 l756 750 -137 137 -138 138 -399 -397 c-219 -218 -399 -398 -400
-399 -1 -1 -40 60 -87 135 -46 75 -103 166 -126 202 -22 36 -123 198 -224 360
-100 162 -191 307 -201 322 -10 15 -19 29 -19 32 0 3 -28 49 -63 103 -57 88
-237 377 -262 421 -6 9 -48 78 -94 152 -302 485 -476 764 -601 965 -78 127
-152 246 -165 265 -13 19 -87 139 -165 265 -182 294 -448 723 -468 755 -13 19
-151 241 -199 318 -6 9 -124 -102 -388 -363z"/>
<path d="M25244 12953 c-154 -151 -452 -442 -859 -838 -51 -49 -222 -216 -380
-370 -158 -154 -328 -320 -378 -369 -183 -176 -755 -734 -956 -930 -109 -107
-111 -110 -94 -130 10 -11 95 -99 190 -195 94 -97 225 -232 291 -301 l121
-124 23 19 c13 11 44 40 69 65 25 25 173 169 329 320 156 151 365 354 464 451
100 98 224 219 277 270 53 52 222 216 375 366 154 149 326 317 384 373 58 56
230 224 383 374 154 149 336 326 405 393 l126 121 39 -21 c62 -35 189 -149
209 -189 28 -53 35 -105 24 -162 -15 -79 -76 -181 -163 -277 -82 -91 -419
-423 -998 -984 -109 -105 -612 -595 -760 -740 -111 -109 -605 -589 -718 -698
l-80 -78 60 -62 c33 -34 139 -142 234 -240 96 -98 204 -210 240 -248 36 -38
70 -69 75 -69 6 0 19 10 31 23 17 19 457 449 694 678 42 41 209 203 370 361
162 157 337 328 389 378 747 725 967 943 1022 1010 243 297 287 577 139 885
-79 166 -189 313 -371 496 -257 259 -525 434 -879 573 -150 59 -121 71 -327
-131z"/>
</g>
</svg>
